<?xml version="1.0" encoding="utf-8"?>
<!-- Generator: Adobe Illustrator 21.0.0, SVG Export Plug-In . SVG Version: 6.00 Build 0)  -->
<svg version="1.1" id="Layer_1" xmlns="http://www.w3.org/2000/svg" xmlns:xlink="http://www.w3.org/1999/xlink" x="0px" y="0px"
	 viewBox="0 0 250.8 76.3" style="enable-background:new 0 0 250.8 76.3;" xml:space="preserve">
<style type="text/css">
	.st0{fill:#FCFDFF;}
	.st1{fill:#D6D6D6;}
	.st2{fill:#F6BA5E;}
</style>
<g>
	<path class="st0" d="M104.8,31.9v12.9c0,0.5,0.4,0.8,0.8,0.8h0.3c1.1,0,2.2,0,3.3-0.1c0.8-0.1,1.7-0.1,2.6-0.3
		c0.4-0.1,0.9,0.2,0.9,0.7l0.1,0.9c0.1,0.4-0.2,0.8-0.7,0.9c-0.9,0.1-2,0.2-3,0.3c-1.4,0.1-2.9,0.1-4.5,0.1h-1.9
		c-0.4,0-0.8-0.4-0.8-0.8V31.9c0-0.5,0.4-0.8,0.8-0.8h1.2C104.4,31.1,104.8,31.4,104.8,31.9z M122.7,55.5h-1.2
		c-0.4,0-0.8-0.4-0.8-0.8V40.7c0-0.5-0.4-0.8-0.8-0.8h-1.7c-0.4,0-0.8,0.4-0.8,0.8v12.8c0,0.5-0.4,0.8-0.8,0.8h-1.2
		c-0.4,0-0.8-0.4-0.8-0.8V29.9c0-0.5,0.4-0.8,0.8-0.8h1.2c0.4,0,0.8,0.4,0.8,0.8v6.6c0,0.5,0.4,0.8,0.8,0.8h1.7
		c0.4,0,0.8-0.4,0.8-0.8v-7.2c0-0.5,0.4-0.8,0.8-0.8h1.2c0.4,0,0.8,0.4,0.8,0.8v25.4C123.5,55.2,123.1,55.5,122.7,55.5z"/>
	<path class="st0" d="M140.8,37.2c-0.1,0.3-0.3,0.6-0.7,1.1c-0.4,0.5-0.8,0.9-1.3,1.3c-0.6,0.5-1.4,1.1-2.2,1.7
		c-0.5,0.4-1,0.7-1.5,1.1c-0.6,0.4-1.3,0.3-1.7-0.3l-0.1-0.2c-0.5-0.6-0.3-1.5,0.3-1.9c0.6-0.4,1.1-0.8,1.7-1.2
		c0.9-0.6,1.6-1.2,2.2-1.8c0.4-0.4,0.7-0.7,1-1.1c0.2-0.3,0.4-0.7,0.6-1.1c0.1-0.4,0.2-0.8,0.3-1.2s0.1-0.9,0.1-1.5v-0.3h-4.7
		c-0.7,0-1.3-0.6-1.3-1.3v0c0-0.7,0.6-1.3,1.3-1.3h12.1c0.7,0,1.3,0.6,1.3,1.3v0c0,0.7-0.6,1.3-1.3,1.3h-4.4v0.2c0,0.5,0,0.9,0,1.3
		c0,0.4,0.1,0.7,0.2,1.1s0.2,0.6,0.4,0.9c0.2,0.3,0.5,0.6,0.9,0.9c0.7,0.6,1.5,1.2,2.4,1.9c0.5,0.3,1,0.7,1.5,1
		c0.6,0.4,0.8,1.3,0.3,1.9l-0.1,0.1c-0.4,0.6-1.2,0.7-1.7,0.3c-0.5-0.3-0.9-0.6-1.3-1c-0.8-0.6-1.5-1.1-2.1-1.6
		c-0.4-0.3-0.8-0.7-1.1-1C141.1,37.7,140.9,37.5,140.8,37.2L140.8,37.2z M154.8,45.1v10.1c0,0.7-0.6,1.3-1.3,1.3h-15
		c-0.7,0-1.3-0.6-1.3-1.3V45.1c0-0.7,0.6-1.3,1.3-1.3h0.4c0.7,0,1.3,0.6,1.3,1.3v1.7c0,0.4,0.3,0.6,0.6,0.6h10.3
		c0.3,0,0.6-0.3,0.6-0.6v-1.7c0-0.7,0.6-1.3,1.3-1.3h0.4C154.2,43.8,154.8,44.4,154.8,45.1z M151.8,53.2v-2.5c0-0.3-0.3-0.6-0.6-0.6
		h-10.3c-0.3,0-0.6,0.3-0.6,0.6v2.5c0,0.3,0.3,0.6,0.6,0.6h10.3C151.6,53.9,151.8,53.6,151.8,53.2z M151.8,41.1V28.9
		c0-0.7,0.6-1.3,1.3-1.3h0.4c0.7,0,1.3,0.6,1.3,1.3v12.2c0,0.7-0.6,1.3-1.3,1.3h-0.4C152.4,42.4,151.8,41.8,151.8,41.1z"/>
	<path class="st0" d="M170.6,55.9V45.3c0-0.3-0.3-0.6-0.6-0.6h-10.2c-0.3,0-0.6-0.3-0.6-0.6v-1.5c0-0.3,0.3-0.6,0.6-0.6h6.7
		c0.3,0,0.5-0.2,0.6-0.4c0.2-0.7,0.3-1.3,0.4-2c0.2-0.8,0.3-1.6,0.4-2.4c0.1-0.8,0.2-1.5,0.2-2.2c0-0.7,0.1-1.2,0.1-1.7v-0.6
		c0-0.3-0.3-0.6-0.6-0.6h-5.3c-0.3,0-0.6-0.3-0.6-0.6v-1.5c0-0.3,0.3-0.6,0.6-0.6h8.2c0.3,0,0.6,0.3,0.6,0.6v1.6
		c0,1.8-0.1,3.5-0.3,5.4c-0.2,1.5-0.4,3-0.7,4.4c-0.1,0.4,0.2,0.7,0.5,0.7h6.5c0.3,0,0.5-0.2,0.6-0.5c0.3-1.6,0.6-3.1,0.7-4.3
		c0.1-1.4,0.2-2.7,0.2-3.9v-0.6c0-0.3-0.3-0.6-0.6-0.6h-5c-0.3,0-0.6-0.3-0.6-0.6v-1.5c0-0.3,0.3-0.6,0.6-0.6h7.9
		c0.3,0,0.6,0.3,0.6,0.6v1.6c0,1.6,0,3.3-0.1,5c-0.1,1.5-0.3,3.1-0.6,4.7c-0.1,0.4,0.2,0.7,0.6,0.7h3.2c0.3,0,0.6,0.3,0.6,0.6v1.5
		c0,0.3-0.3,0.6-0.6,0.6h-10.2c-0.3,0-0.6,0.3-0.6,0.6v10.6c0,0.3-0.3,0.6-0.6,0.6h-1.9C170.9,56.5,170.6,56.2,170.6,55.9z"/>
	<path class="st0" d="M189,47.7V31.4c0-0.6,0.5-1.2,1.1-1.2H201c0.6,0,1.1,0.5,1.1,1.2v16.3c0,0.6-0.5,1.2-1.1,1.2h-10.9
		C189.5,48.9,189,48.4,189,47.7z M193.1,46.2h4.9c0.6,0,1.1-0.5,1.1-1.2V34c0-0.6-0.5-1.2-1.1-1.2h-4.9c-0.6,0-1.1,0.5-1.1,1.2v11.1
		C192,45.7,192.5,46.2,193.1,46.2z M207.3,55.3V28.7c0-0.6,0.5-1.2,1.1-1.2h0.7c0.6,0,1.1,0.5,1.1,1.2v26.6c0,0.6-0.5,1.2-1.1,1.2
		h-0.7C207.8,56.5,207.3,56,207.3,55.3z"/>
	<path class="st0" d="M216.4,48.4c-0.2-0.4-0.1-0.9,0.2-1.1c1.3-0.8,2.5-1.6,3.5-2.2c1.1-0.8,2.1-1.5,2.8-2.1
		c0.8-0.6,1.3-1.2,1.8-1.8c0.4-0.6,0.7-1.1,1-1.7c0.2-0.6,0.3-1.1,0.4-1.7c0.1-0.6,0.1-1.3,0.1-2v-2.1c0-0.4-0.3-0.8-0.7-0.8h-8.1
		c-0.4,0-0.7-0.3-0.7-0.8V31c0-0.4,0.3-0.8,0.7-0.8h11.1c0.4,0,0.7,0.3,0.7,0.8v4.8c0,0.9,0,1.8-0.1,2.6c-0.1,0.8-0.2,1.5-0.4,2.2
		c-0.2,0.7-0.6,1.3-1.1,2c-0.5,0.7-1.1,1.4-2,2.1c-0.9,0.8-1.9,1.6-3.2,2.5c-1.1,0.8-2.5,1.7-4.1,2.7c-0.3,0.2-0.8,0.1-1-0.2
		L216.4,48.4z M235,55.7V28.3c0-0.4,0.3-0.8,0.7-0.8h1.5c0.4,0,0.7,0.3,0.7,0.8v27.4c0,0.4-0.3,0.8-0.7,0.8h-1.5
		C235.3,56.5,235,56.2,235,55.7z"/>
</g>
<g>
	<polygon class="st1" points="23.7,43.6 12.1,43.6 20.1,27.9 31.7,27.9 	"/>
	<polygon class="st2" points="31,50.6 42.6,50.6 31.6,27.9 20,27.9 	"/>
	<polygon class="st2" points="51,57.6 62.6,57.6 47.7,27.9 36,27.9 	"/>
	<polygon class="st2" points="71.1,64.6 82.7,64.6 63.7,27.9 52.1,27.9 	"/>
	<polygon class="st1" points="81.7,55 69.2,30 69.2,12.8 81.7,12.8 	"/>
</g>
</svg>
